<svg id="Layer_1" data-name="Layer 1" xmlns="http://www.w3.org/2000/svg" viewBox="0 0 923.42 1143.99"><defs><style>.cls-1{opacity:0.11;}.cls-2{fill:#606060;}.cls-3{fill:#021722;}.cls-4{fill:#053148;}.cls-5{fill:none;}.cls-6{fill:#bee6fa;}.cls-7{fill:#fff;}.cls-8{fill:#e7caad;}.cls-9{fill:#96432b;}.cls-10{fill:#7f3524;}.cls-11{fill:#d6bba0;}.cls-12{fill:#c5cccc;}</style></defs><g id="Layer_2" data-name="Layer 2"><g id="shadow"><g class="cls-1"><path class="cls-2" d="M866.5,947h-739C104.12,947,85,962,85,980.2h0c0,12.66,9.17,23.71,22.58,29.32H42.5c-23.38,0-42.5,15-42.5,33.22H0C0,1061,19.12,1076,42.5,1076H65.18c-6.34,5.8-10.18,13.31-10.18,21.5v13.29C55,1129,74.12,1144,97.5,1144h728c23.38,0,42.5-15,42.5-33.22v-13.29c0-18.28-19.12-33.23-42.5-33.23L776,1065c3.77,0,9.89-2.33,14-7,7.2-8.2,7.52-20.67,4-31-2.28-6.69-5.94-12-15-14l87.5.45c23.38,0,42.5-15,42.5-33.23h0C909,962,889.88,947,866.5,947Z" transform="translate(0 0)"/></g></g><g id="object"><path class="cls-3" d="M536.6,1002.42l24.54,15.73,8.51,12.5s-8.73,4.38-13.63,5.6-43.79-2.94-43.79-2.94l-1.05-22.77Z" transform="translate(0 0)"/><path class="cls-3" d="M414,1019.59l12.13,13.6s9.87,18.43,4.92,18.15-31.83,1.16-33.64-1.92-16.09-13.82-18-15.92,0-19.39,0-19.39Z" transform="translate(0 0)"/><path class="cls-4" d="M483.32,657.87,452.84,843.13,414,1019.59l-34.63-2L386,831.37S361,660.2,361,609.56Z" transform="translate(0 0)"/><polygon class="cls-4" points="559.77 667 545.83 1008.94 510.19 1010.59 491.23 836.85 463.64 683.53 537.29 588.67 559.77 667"/><polygon class="cls-5" points="378.97 372.42 378.97 372.42 378.97 372.42 378.97 372.42"/><path class="cls-6" d="M541.08,487c-18.68-90.94,5-134.79-35.86-160.06,0,0-66.63-18.31-109.07,12.16-.59.42-1.17.85-1.75,1.29L379,372.42,367.26,516.26S334.52,705.11,351.9,706.63c19.69,1.73,110.09-40.4,127.26-39.4s69.67,10.4,119.24-6.48C640.9,646.29,559.77,577.9,541.08,487Z" transform="translate(0 0)"/><polygon class="cls-7" points="458.22 324.11 445.26 324.59 443.94 337.64 491.56 470.8 502.23 413.1 490.57 329.29 458.22 324.11"/><path class="cls-4" d="M500.27,423.66c-.09-5.26-.34-10-.78-13.8-3-26.43-21.86-60.93-21.86-60.93a136.27,136.27,0,0,1-1.55-14.1l-15.68-2.54,1,16.37,6.77,7.08s16.45,62.92,16.76,88.15c0,2.65,0,5.37-.1,8.12l6.72,18.79Z" transform="translate(0 0)"/><polygon class="cls-7" points="497.36 521.98 479.01 666.97 517.7 672.43 544.46 670.35 510.62 544.56 497.36 521.98"/><path class="cls-8" d="M475.79,329.88,449.14,331a133.07,133.07,0,0,1-1.54-21.2c-7.66-1.53-16.64-4.2-19-11.65a21.8,21.8,0,0,1-.59-7.33c.32-10.17-2.54-20.48,1-30.51,1.16-3.33.24-7.15,1.7-10.35,2.55-5.63,8.59-8.79,14.47-10.68,15-4.84,32.23-3.87,45.57,4.53,3.55,2.23,6.88,5.05,8.83,8.76,3,5.73,2.33,12.61,1.57,19q-1,8.9-2.08,17.79c-.8,6.82-2.24,14.65-8.23,18-3.18,1.78-7.21,2-10,4.33C475.93,315.88,477.77,323.77,475.79,329.88Z" transform="translate(0 0)"/><path class="cls-3" d="M514,197.7a26.19,26.19,0,0,1-6.14-1.14c-6.65-2.25-11.61-7.46-18.64-9.5-14.22-4.14-31.43-1.9-44.47,4.93-12.49,6.54-30,10.14-40.94,18.43A35.46,35.46,0,0,0,393.43,224c-8.38,18-5.23,40.85,7.73,56a77.41,77.41,0,0,0,9.69,9.21c7.15,5.85,15.74,13.11,24.62,14.4-.87-7.66-11.21-30.74-6.24-37.82,6.61-9.39,21-10.39,31.46-10.29,12.41.11,22.21-4.71,34.54-5.13,6.28-.22,13.46.44,17.91-4,5.15-5.13,15.61-20.91,17.84-27.63,2-5.89-.26-12.75-4.87-16.9C522.13,198.2,518.15,198.09,514,197.7Z" transform="translate(0 0)"/><path class="cls-6" d="M597.52,398,516.8,324.86l-19.41,16.36L564.2,452.81l30.16,2.89s8.69-31.06,10.48-34.36Z" transform="translate(0 0)"/><path class="cls-9" d="M216.26,940.34c-15.22-4.78-30-3.53-43.9,3.72S149,962.7,144.18,977.91s-3.54,30,3.72,43.9,18.64,23.39,33.85,28.18a59.25,59.25,0,0,0,17.87,2.84,55.75,55.75,0,0,0,26-6.56c13.91-7.25,23.39-18.64,28.18-33.85s3.53-30-3.72-43.9S231.45,945.12,216.26,940.34Z" transform="translate(0 0)"/><path class="cls-10" d="M250.11,968.52c-7.27-13.91-18.66-23.4-33.85-28.18a61.34,61.34,0,0,0-14.58-2.74A55.35,55.35,0,0,1,224,960.85c7.25,13.94,8.5,28.7,3.71,43.9s-14.26,26.6-28.18,33.86a55.75,55.75,0,0,1-26,6.56c-1.09,0-2.19,0-3.3-.11a61.87,61.87,0,0,0,11.51,4.93,59.25,59.25,0,0,0,17.87,2.84,55.75,55.75,0,0,0,26-6.56c13.91-7.25,23.39-18.64,28.18-33.85S257.36,982.45,250.11,968.52Z" transform="translate(0 0)"/><path class="cls-9" d="M536,565.48C512.3,524,472.39,494.23,417.43,477s-105-15.81-148.7,4.39c-38,17.56-65.87,47.35-82.8,88.55A26.89,26.89,0,0,0,200.56,605c.71.29,1.44.55,2.17.78l32.72,10.3a26.89,26.89,0,0,0,32.66-14.8C278,579,291.92,563.88,310.8,555.08c22.85-10.66,50.42-11,81.94-1.11s53.51,26.28,65.64,48.73S471.65,652,462,682.85c-13.37,42.47-34.54,67.25-62.92,73.66-29.89,6.74-71.87,1.42-124.86-15.84L260,736.22a26.9,26.9,0,0,0-33.7,17.56L187.5,877.13a26.88,26.88,0,0,0,17.57,33.7l33.2,10.45A26.88,26.88,0,0,0,272,903.75h0l25.14-79.88a2,2,0,0,1,2.36-1.28c62.38,17.81,114.22,19,154.09,3.62,42.41-16.43,73.09-53.93,91.21-111.5C562.81,657.37,559.88,607.16,536,565.48Z" transform="translate(0 0)"/><path class="cls-10" d="M536,565.48C512.3,524,472.39,494.23,417.43,477c-34-10.7-66.16-14.21-96.08-10.53A260.4,260.4,0,0,1,369.88,477c55,17.3,94.88,47.09,118.61,88.55,23.84,41.68,26.78,91.89,8.73,149.23-18.12,57.52-48.8,95-91.22,111.41a159.77,159.77,0,0,1-40.09,9.49c33.58,3.22,62.91.07,87.63-9.49,42.4-16.39,73.09-53.89,91.21-111.46C562.81,657.37,559.88,607.16,536,565.48Z" transform="translate(0 0)"/><polygon class="cls-6" points="410.3 330.98 372.05 342.77 280.53 498.76 286.77 528.91 405.32 588.19 421.96 555.95 347.09 498.76 392.84 436.36 410.52 336.53 410.3 330.98"/><polygon class="cls-11" points="515.22 326.19 495.8 305.33 477.08 310.53 471.88 329.25 488.52 332.37 504.15 335.52 515.22 326.19"/><polygon class="cls-8" points="420.32 559.13 439 562.98 436 573.98 452.18 592.91 430 600.98 408.28 582.47 420.32 559.13"/><path class="cls-12" d="M606,161.35a39.83,39.83,0,0,0,49.21,61A57.79,57.79,0,0,0,759.67,235,70.07,70.07,0,0,0,884,190.34a70.86,70.86,0,0,0-1.62-14.73A57.78,57.78,0,0,0,853.22,63.88V62.59a39.83,39.83,0,0,0-68.76-27.22,70.07,70.07,0,0,0-130,23.3,58.55,58.55,0,0,0-14.79-1.86A57.77,57.77,0,0,0,606,161.35Zm63.21,3-.23.25-.06-.08Z" transform="translate(0 0)"/><path class="cls-12" d="M646.76,278.64a24.42,24.42,0,0,1-35.56,25.43,19.14,19.14,0,0,1-37.49-6.78,17.53,17.53,0,0,1-4.49-34.76,16.94,16.94,0,0,1,5.77,0,24.42,24.42,0,0,1,46.62-4.45A24.43,24.43,0,0,1,646.76,278.64Z" transform="translate(0 0)"/></g></g></svg>