<svg id="Layer_1" data-name="Layer 1" xmlns="http://www.w3.org/2000/svg" viewBox="0 0 594.28 704.48"><defs><style>.cls-1{opacity:0.7;}.cls-2{fill:#d8d8d8;}.cls-3{fill:#e5bbae;}.cls-4{fill:#202725;}.cls-5{fill:#092d1e;}.cls-6{fill:#aef0d4;}.cls-7{fill:#1c2220;}.cls-8{fill:#053148;}.cls-9{fill:#bee6fa;}.cls-10{fill:#d1e7f5;}.cls-11{fill:#36413e;}.cls-12{fill:#fff;}.cls-13{opacity:0.15;}.cls-14{fill:#080b0b;}.cls-15{opacity:0.06;}.cls-16{fill:#a2a4a7;}.cls-17{fill:#a37567;}.cls-18{fill:#510006;}.cls-19{fill:#ff9ba3;}.cls-20{fill:#ebb044;}.cls-21{fill:#145566;}.cls-22{fill:#c8d6a1;}.cls-23{fill:#ececec;}.cls-24{fill:#59595b;}.cls-25{fill:#9ea6ad;}</style></defs><g id="Layer_2" data-name="Layer 2"><g id="shadow"><g class="cls-1"><path class="cls-2" d="M272.7,639.15a469.53,469.53,0,0,0-52.19,2.41c-6.55.72-13,2.34-19.53,3-13.12,1.28-26,3.7-39.16,4.8-10.6.91-21.25,1.43-31.81,2.56A111.74,111.74,0,0,1,99.29,651c-7.27-1.3-14.59-2-21.74-4.12a88.75,88.75,0,0,0-25-4c-11.89.12-23.49.12-34.86,4.23-4,1.46-8.89,3.84-11.92,6.89-6.95,7-7.89,24.34-1,31.57,11.69,12.15,36.62,16.93,53,17.15,17.94.25,35.37-1.08,53.34-1.87,16.7-.73,33.35-1.76,50.08-1.72,34.16.07,68.33,0,102.42-2.29,32-2.14,64.16-1.4,96.26-1.4,32.93,0,65.63.25,98.32,4.63,14.24,1.91,28.75,2.57,43.06,3.91,12.82,1.2,25.14,0,37.91-1.13a90.62,90.62,0,0,0,31-8.34c7.71-3.68,21.45-15.13,23.82-23.92,6.63-24.66-93.42-24.06-108.78-24-17.18.06-34.5.63-51.67,0a121.35,121.35,0,0,1-21.37-3.23c-7-1.54-14.09-1.15-21.21-1.8-29.7-2.7-59.45-2.3-89.24-2.3C292.09,639.21,282.4,639.13,272.7,639.15Z" transform="translate(-0.05 0)"/></g></g><g id="object"><polygon class="cls-3" points="441.62 662.66 430.01 662.66 429.56 565.34 451.13 569.98 441.62 662.66"/><polygon class="cls-4" points="352.88 663.77 353.77 670.9 340.44 679.87 332.38 673.65 338.6 665.6 351.94 656.63 352.88 663.77"/><polygon class="cls-5" points="353.32 661.37 343.01 570.38 355.4 468.52 352.63 446.85 297.3 444.75 295.3 480.01 304.57 570.52 339.52 666.02 353.32 661.37"/><polygon class="cls-5" points="257.81 476.13 255.66 547 270.74 665.68 284.02 665.93 294.5 556.88 310.02 473.37 257.81 476.13"/><polygon class="cls-4" points="283.85 671.54 269.32 678.46 262.26 671.14 269.6 664.08 283.99 664.35 283.85 671.54"/><path class="cls-6" d="M358.86,486.22c-.56-6.19.59-18,.23-21.11-2.47-20.83-1.59-41-5.18-61.86-1.34-7.8-6-27.25-9.4-34.49-8.4-18-5.8-19.63-42.71-25-10.26-1.48-18.47,3.46-24.86,11.24-8.2,10-6.68,26.13-11.05,37.92-5,13.5-3.13,28.21-5.16,42.4-2.45,17.14-5.63,34.91-7.21,51.71a1.74,1.74,0,0,0,.33,1.51,1.69,1.69,0,0,0,1.25.3c12.67-.29,25.27-1.69,38-1.59,9.86.07,19.5,2.33,29.31,3,12,.77,26.44-7.6,37.57-.34C359.38,489.51,359,488.14,358.86,486.22Z" transform="translate(-0.05 0)"/><path class="cls-3" d="M301.75,348.86c1.87.93,6.26,1.25,10.85-.54a2.41,2.41,0,0,0,1.53-2.24,62.78,62.78,0,0,0-.67-8.33c3.44-1.2,7.41-3,8-6.61a10.13,10.13,0,0,0-.2-3.43q-1.23-7-2.42-14a12.61,12.61,0,0,0-1.46-4.67c-1.54-2.43-4.54-3.49-7.38-4-7.24-1.25-15.14.32-20.75,5.06a11,11,0,0,0-3.51,4.62c-1,2.84-.25,6,.51,8.89q1,4,2.12,8.08c.82,3.1,2,6.62,5,7.78,1.58.62,3.45.44,4.89,1.35C300.78,342.41,300.44,346.17,301.75,348.86Z" transform="translate(-0.05 0)"/><path class="cls-7" d="M260,302.22a29.69,29.69,0,0,0-2.34-3.36c-1.85-2.29-4.14-4.25-5.64-6.79s-2-6-.22-8.32a9,9,0,0,1,4.86-2.81,35.19,35.19,0,0,1,18.58-.34c5.79,1.47,11,3.91,16.79,1.73,5.48-2,9.43-1.2,15.15.83,6.19,2.21,14.5,2.73,20.11,5.85a16.69,16.69,0,0,1,5.66,5.58,24.92,24.92,0,0,1,.07,26.34,35.16,35.16,0,0,1-3.88,4.89c-2.92,3.18-6.41,7.08-10.43,8.25-.1-3.59,3.18-14.93.42-17.87-4.38-4.67-14.29-3-19.72-1.89-5.93,1.25-11.21,5.45-17.09,6.35-4.23.65-9.63-1.43-13.22-3.62C264.61,314.35,262.55,306.48,260,302.22Z" transform="translate(-0.05 0)"/><polygon class="cls-3" points="369.38 296.72 363.57 281.57 368.95 274.87 374.63 279.74 377 285.9 381.18 286 380.96 297.27 404.81 345.67 446.06 345.26 436.9 378.03 396.27 363.9 383.88 351.98 369.38 296.72"/><polygon class="cls-3" points="516.83 287.44 516.46 276.09 525.33 266.93 532.63 268.69 526.36 295.53 516.83 287.44"/><polygon class="cls-3" points="471.15 341.14 504.19 353.2 516.83 287.44 525.65 289.32 528.38 364.39 517.99 380.49 485.1 371.05 471.15 341.14"/><polygon class="cls-8" points="455.13 503.71 507.13 486.26 493.94 576.12 466.64 585.53 456.76 511.36 456.76 511.36 455.13 503.71"/><polygon class="cls-4" points="488.13 659.02 498.69 659.05 501.13 668.02 500.85 668.09 500.9 668.1 483.2 677.91 474.9 678.6 474.13 669.11 476.4 667.53 488.13 659.02"/><polygon class="cls-8" points="419.07 504.25 428.95 572.73 452.89 576.76 473.01 494.26 419.07 504.25"/><polygon class="cls-4" points="430.01 662.66 416.31 669.92 417.38 676.33 441.62 676.14 441.62 662.66 430.01 662.66"/><path class="cls-9" d="M416.37,507.82c2.53.66,5.54-.26,8.18-.3,12.12-.15,23.85.09,36-1.08,13-1.26,25.91-2.85,38.94-2.95a122.36,122.36,0,0,1,16.24-.7c-5.76-30.58-12.53-59.46-12.53-59.46a192.84,192.84,0,0,1-5-26.42c-.74-6.31-16.44-78.09-15.4-78.18-10.81.95-31.65-2.13-39.66,7.12-.23.26-.45.54-.66.82-6.24,8.58-9.49,26-12.44,36.66-4.3,15.61-3.84,32-4.4,48-.79,22.71-7.87,44.09-8.52,66.75C417,501.33,416.56,504.57,416.37,507.82Z" transform="translate(-0.05 0)"/><path class="cls-7" d="M462.94,302.94c-5.92.67-13.47,5.2-15.29,11.29-.87,2.93-.08,5.74-1.14,8.84-2.07,6.1,4.86,15.78-2.88,19.62-4,2-8.72.94-13-.15a3.17,3.17,0,0,1-1.47-.63,2.28,2.28,0,0,1-.38-2.48,9.52,9.52,0,0,1,1.46-2.21c5.63-7.37,5.11-18.5,7.68-27.15s7.84-17,16.75-20.07c4.15,3.09,6.91,6.3,7.65,11.41Z" transform="translate(-0.05 0)"/><path class="cls-3" d="M455.11,339.22c-5.47-2.78-8.83-8.77-9.66-14.84s.55-12.27,2.59-18.06c6.81-19.27,31.08-12,35.72,5.13C487.81,326.41,471,347.29,455.11,339.22Z" transform="translate(-0.05 0)"/><path class="cls-7" d="M481.1,352.83c-2.66-1.89-5.25-3.88-6.64-7.19-2.25-5.35-.63-13.35-.57-19,.06-6-.05-12.45-3.84-17.06-2.47-3-5.69-4-9.36-4.6-2.51-.43-2.75.51-4.67-1.16-1.48-1.29-2.4-4.59-2.5-6.46a10.56,10.56,0,0,1,3.91-8.24,14.76,14.76,0,0,1,12.3-3.84c16.46,2.13,27.3,13.72,29.49,30.45,1,8-1.89,16.36-.65,24.14.77,4.8,3.24,8.29,3.69,13.35,1.17,13.11,5.7,30.35,3.18,43.34a1.93,1.93,0,0,1-.64,1.28c-.84.54-1.82-.43-2.35-1.27l-9.25-14.81a24.13,24.13,0,0,1-3.08-6.1c-1.58-5.47.64-11.9-2.38-16.73C486.06,356.29,483.55,354.6,481.1,352.83Z" transform="translate(-0.05 0)"/><path class="cls-10" d="M280.65,389c-1.19-2.72-6-5.18-6-5.18l-22.58-8.75a12.6,12.6,0,0,1-6-5,2,2,0,1,0-1.7-3.66h-.08l-1.42-3.25-19.33,8.47,1.43,3.25-.69.29a2,2,0,1,0,1.62,3.71l.57-.25a12.65,12.65,0,0,1-.39,8.26l-9.5,22.34s-1.44,5.19-.24,7.91l6.1,13.93s19.31,7.53,12.15,27.3L271,541.68s35.62,5.76,64.27-28.18l-36.67-83.21c-18.71-7.74-11.85-27.43-11.85-27.43Z" transform="translate(-0.05 0)"/><path class="cls-11" d="M317.48,473l-18.43-42-14.91,8c-12,5.91-21.17,9.7-34.23,15l-15.12,5.14,18.43,42-.2.09c38.23-3,64.67-28.37,64.67-28.37Z" transform="translate(-0.05 0)"/><polygon class="cls-12" points="269.19 454.05 280.75 448.97 275.06 463.71 287.01 463.24 276.25 486.22 276.44 470.58 266.82 472.71 269.19 454.05"/><rect class="cls-11" x="216.54" y="354.26" width="28.33" height="16.35" rx="5.47" transform="translate(-126.19 123.17) rotate(-23.68)"/><g class="cls-13"><path class="cls-14" d="M226.58,378.85,246,370.07a20.6,20.6,0,0,0,1.39,1.7Z" transform="translate(-0.05 0)"/></g><g class="cls-15"><path class="cls-14" d="M286.93,403.28l-.09-.2-64.26,28.18.08.19S242,439,234.81,458.76l.12.29L263.86,448c1.84-.72,3.66-1.51,5.45-2.39L298.9,431l-.12-.3C280.07,423,286.93,403.28,286.93,403.28Z" transform="translate(-0.05 0)"/></g><polygon class="cls-16" points="317.64 472.89 317.6 472.84 317.6 472.84 317.64 472.89"/><polygon class="cls-17" points="53.65 251.84 53.65 235.63 61.06 231.3 64.64 237.87 64.64 244.48 68.47 246.06 64.25 256.51 58.58 327.24 106.97 346.09 94.94 371.59 43.62 341.48 39.2 323.6 53.65 251.84"/><polygon class="cls-17" points="83.28 552.46 88.75 660.79 100.78 662.22 110.67 552.46 83.28 552.46"/><polygon class="cls-17" points="159.63 552 163.24 659.06 151.38 660.49 132.28 553.69 159.63 552"/><polygon class="cls-18" points="161.91 557.45 162 556.04 159.44 496.57 110.67 488.4 127.47 557.45 161.91 557.45"/><polygon class="cls-18" points="114.31 557.45 127.69 470.9 79.81 475.52 77.36 520.48 79.36 557.45 114.31 557.45"/><path class="cls-19" d="M145.36,343.07l-35.16-3.75s-19.55,2.09-32.81,48.51C70,413.67,67.77,454.36,67.2,485.39c.83,4.43,5.65,23.83,26,20.53,35-5.64,53.65-11.29,68.9-8.47,13,2.83,11.89-15.06,10.47-28.7l-5.18-42.24Z" transform="translate(-0.05 0)"/><path class="cls-17" d="M138.57,299.33c-8.86-1.95-18-3.7-26.84-1.95-1.94.4-4,1.06-5.08,2.74a7.86,7.86,0,0,0-.83,2.14c-2.23,8.32-5.07,20.65.4,28.31a13.93,13.93,0,0,0,4,3.57,19.63,19.63,0,0,0,6.55,2.58,36.42,36.42,0,0,1-2,6c2,3.06,11.48,3.42,13.23.48l.3-7.6a19.61,19.61,0,0,0,3.31-1.72,21.5,21.5,0,0,0,8.25-11.22c1.68-4.93,4.06-9.6,5.59-14.62.57-1.83,1-3.91.05-5.57s-3.24-2.36-5.22-2.8Z" transform="translate(-0.05 0)"/><path class="cls-7" d="M109.09,304.07a27.57,27.57,0,0,1,15.11-3.71c12.45.9,17,10,17.67,21.49,3.43-4.36,9.87-9.84,10.25-15.46.32-4.58-.31-10.85-2.88-14.81-2.41-3.7-8.56-5.75-12.22-7.89l-10.35-6.08a5.18,5.18,0,0,0-5.18-.67l-24.43,6.32c-1.57.41-3.35,1-3.93,2.52a5,5,0,0,0,.07,2.89c.92,4.24,2.7,8.56,3.14,12.86.5,2.48,2,15.26,6.39,13.78,1.3-2.12,1.49-4.73,2.5-7A10.07,10.07,0,0,1,109.09,304.07Z" transform="translate(-0.05 0)"/><polygon class="cls-17" points="191.85 252.02 195.28 236.17 188.94 230.36 184.07 236.04 182.66 242.49 178.57 243.22 180.49 254.33 171.07 324.66 141.94 345.06 148.29 372.53 182.69 341.74 190.78 325.2 191.85 252.02"/><polygon class="cls-4" points="88.75 660.79 77.86 667.68 78.89 673.76 101.86 670.97 100.78 662.22 88.75 660.79"/><polygon class="cls-4" points="163.24 659.06 174.28 665.95 173.25 672.03 150.26 669.24 151.38 660.49 163.24 659.06"/><path class="cls-20" d="M180.94,214.86c.16-.72,5.86-1.75,6.47-1.9a100,100,0,0,1,17.79-2.72c17.25-1.07,30.78,3.26,46.4,10.26,14.3,6.42,38,11.92,78.8,1.69,0,0,10.34,28.48,10.34,28.49.27.72-51.72,16.74-86.48,5.42-8-2.61-17.63-5.89-25.39-9.12a98.74,98.74,0,0,0-17.55-5.43c-12-2.52-24.56-2.78-36.41.43Z" transform="translate(-0.05 0)"/><rect class="cls-21" x="209.53" y="216.34" width="15.27" height="2.96" transform="translate(-60.78 349.67) rotate(-70.47)"/><rect class="cls-21" x="238.56" y="223.47" width="13.33" height="2.96" transform="translate(-41.44 394.04) rotate(-73.07)"/><rect class="cls-21" x="267.34" y="231.69" width="12.65" height="2.96" transform="translate(-9.13 455.25) rotate(-78.58)"/><rect class="cls-21" x="302.18" y="227.08" width="2.96" height="12.86" transform="translate(-28.54 42.68) rotate(-7.68)"/><path class="cls-22" d="M208.8,67.12c-21.39-15.58-44-12.16-60-5.94a46.65,46.65,0,0,1-35.86-1c-15.79-7-38.68-11.77-61.06,3.23-30,20.12-36.51,56.86-31.17,90.53,3.95,24.92,12.08,50.77,26.19,72.1C60.56,246.69,87,268.82,113.61,260.5a36.72,36.72,0,0,1,24.77.78c37.82,15.28,66.68-27.21,80.56-55.78,14.5-29.86,25.08-66.69,16.15-99.74A70,70,0,0,0,208.8,67.12Z" transform="translate(-0.05 0)"/><path class="cls-11" d="M120.42,35.3c3.69-9.42,11-17.48,18.71-22.59s15.68-7.64,23.46-9.41A146.73,146.73,0,0,1,183,0a116.15,116.15,0,0,1-7,18.4c-4,8.72-8.3,17.46-13.89,25.26s-12.58,14.65-20,17.94C126.92,68.36,112.65,55.12,120.42,35.3Z" transform="translate(-0.05 0)"/><path class="cls-20" d="M25.33,97.39s-12,10.33,8.8,14.77C50,115.07,66,117.24,82,119.16c33.23,4,66.78,6.62,100.27,5.94,11.52-.23,23-.88,34.5-2.25,5.32-.63,10.66-1.36,15.91-2.42,4.15-.84,6.25-2.58,4.69-7,7.6,1.83,7.51,8.42,7.41,14.75a96,96,0,0,1-1.07,12.56c-.57,3.76-.38,9.31-2.29,12.62-2.41,4.16-8.5,4.32-12.65,4.92-5.31.78-10.64,1.4-16,1.91-10.67,1-21.38,1.59-32.09,2a615.81,615.81,0,0,1-76.36-1.69q-23-1.94-45.8-5.61-12.18-2-24.26-4.44c-5.17-1.06-13-2.39-16.45-7a22.51,22.51,0,0,1-3.21-6.38c-2.76-8.21-1.77-17.48,0-25.78C14.58,111.42,16.88,100,25.33,97.39Z" transform="translate(-0.05 0)"/><path class="cls-20" d="M20.85,156.07s1.36,14.17,11.9,15.08c0,0,134.45,15,203-9.83,0,0-1,14.3-13.26,39.31-18.29,5.17-27.59,7.36-46.39,9.63a565.16,565.16,0,0,1-72.87,4q-22-.19-44-2.19c-12.75-1.15-24.66-3.89-32.06-15.26a44.14,44.14,0,0,1-4-8.13c-2.09-5.41-3.42-11.06-5.07-16.61a29.2,29.2,0,0,1-1.09-6C16.69,162.53,17,157.67,20.85,156.07Z" transform="translate(-0.05 0)"/><rect class="cls-21" x="31.19" y="120.15" width="16.79" height="2.96" transform="translate(-86.77 141.88) rotate(-81.08)"/><rect class="cls-21" x="66.08" y="125.37" width="17.04" height="2.96" transform="translate(-62.11 181.45) rotate(-81.32)"/><rect class="cls-21" x="100.76" y="129.96" width="16.8" height="2.95" transform="translate(-34.51 223.99) rotate(-83.09)"/><rect class="cls-21" x="136.79" y="131.65" width="17.24" height="2.96" transform="translate(3.48 270.02) rotate(-86.45)"/><rect class="cls-21" x="176.88" y="125.34" width="2.96" height="16.75" transform="translate(-12.21 17.98) rotate(-5.58)"/><rect class="cls-21" x="211.5" y="123.27" width="2.96" height="16.66" transform="translate(-1.35 2.13) rotate(-0.57)"/><rect class="cls-21" x="37.9" y="171.64" width="2.96" height="15.88" transform="translate(-25.93 7.7) rotate(-8.42)"/><rect class="cls-21" x="70.79" y="174.19" width="2.96" height="15.94" transform="matrix(1, -0.08, 0.08, 1, -13.91, 6.13)"/><rect class="cls-21" x="107.49" y="174.32" width="2.95" height="14.68" transform="translate(-19.45 13.14) rotate(-6.34)"/><rect class="cls-21" x="143.71" y="175.18" width="2.96" height="15.74" transform="translate(-20.22 17.99) rotate(-6.63)"/><rect class="cls-21" x="179.98" y="172.72" width="2.96" height="16.75" transform="translate(-14.63 15.89) rotate(-4.82)"/><rect class="cls-21" x="211.62" y="167.87" width="2.96" height="16.52" transform="translate(-22.27 31) rotate(-7.91)"/><rect class="cls-11" x="404.1" y="124.88" width="149.15" height="149.15" rx="8.78" transform="translate(222 650.08) rotate(-82.96)"/><path class="cls-23" d="M467.34,169.32A31.3,31.3,0,0,1,497,173l24.42-14.42a47.23,47.23,0,0,0-64.68-16.66,46.57,46.57,0,0,0-9.61,7.5Z" transform="translate(-0.05 0)"/><polygon class="cls-24" points="485.38 167.76 479.56 167.04 484.7 150.22 485.38 167.76"/><rect class="cls-25" x="434.99" y="161.18" width="82.1" height="119.23" rx="5.83" transform="translate(198.51 666.19) rotate(-82.96)"/><polygon class="cls-3" points="473.01 583.33 488.13 659.02 498.69 659.05 493.94 576.12 473.01 583.33"/><polygon class="cls-3" points="325.55 458.4 316.39 471.8 307.82 471.19 308.58 463.75 312.31 458.3 310.01 454.82 319.39 448.57 345.62 401.41 333.15 378.02 336.82 351.16 365.45 398.04 362.71 415.03 325.55 458.4"/></g></g></svg>