<svg id="Layer_1" data-name="Layer 1" xmlns="http://www.w3.org/2000/svg" viewBox="0 0 285.14 541.2"><defs><style>.cls-1{opacity:0.7;}.cls-2{fill:#d8d8d8;}.cls-3{fill:#e5bbae;}.cls-4{fill:#122235;}.cls-5{fill:#aef0d4;}.cls-6{fill:#092d1e;}.cls-7{fill:#ececec;}.cls-8{fill:#36413e;}.cls-9{fill:#fff;}.cls-10{opacity:0.12;}.cls-11{fill:#c8d6a1;}.cls-12{opacity:0.47;}.cls-13{fill:#879195;}.cls-14{opacity:0.32;}.cls-15{fill:#1c2220;}</style></defs><g id="Layer_2" data-name="Layer 2"><g id="shadow"><g class="cls-1"><path class="cls-2" d="M104.73,475.92c-6.69.05-13.37.47-20,2.4-2.51.73-5,2.33-7.5,3-5,1.29-10,3.7-15,4.81-4.07.9-8.16,1.42-12.21,2.56a17.1,17.1,0,0,1-11.8-.94c-2.79-1.3-5.6-2-8.35-4.13-3.08-2.34-6.42-4-9.62-4-4.57.09-9,.1-13.39,4.23a19.19,19.19,0,0,0-4.58,6.87c-2.67,7-3,24.35-.36,31.57C6.4,534.45,16,539.22,22.27,539.45c6.89.25,13.58-1.09,20.48-1.87,6.42-.73,12.81-1.76,19.24-1.73,13.12.08,26.24,0,39.33-2.28,12.31-2.14,24.64-1.41,37-1.41,12.65,0,25.21.26,37.76,4.64,5.47,1.9,11,2.57,16.54,3.91,4.92,1.19,9.65,0,14.56-1.13,4.12-.93,8.21-3.68,11.95-8.34,3-3.68,8.24-15.13,9.14-23.92,2.55-24.66-35.87-24.07-41.77-24-6.6.06-13.25.63-19.85,0-2.77-.27-5.5-1.69-8.21-3.23s-5.41-1.15-8.15-1.8c-11.4-2.7-22.83-2.31-34.27-2.31C112.18,476,108.45,475.89,104.73,475.92Z" transform="translate(-0.1 -0.01)"/></g></g><g id="object"><polygon class="cls-3" points="143.22 86.83 142.86 75.49 151.73 66.33 157.47 69.64 152.41 91.33 143.22 86.83"/><polygon class="cls-3" points="109.82 191.79 130.58 152.59 143.22 86.83 152.06 88.72 152.41 159.13 144.39 179.89 123.75 221.7 109.82 191.79"/><polygon class="cls-4" points="65.77 494.25 65.08 499.83 75.06 507.05 81.1 502.28 76.46 495.88 66.47 488.67 65.77 494.25"/><polygon class="cls-5" points="70.07 323.2 67.95 340.16 81.79 398.89 65.44 492.37 75.76 496.2 105.35 405.26 110.33 378.72 111.5 322.32 70.07 323.2"/><polygon class="cls-5" points="149.62 344.03 124.03 500.7 114.09 500.47 114.68 399.67 98.24 328.52 149.62 344.03"/><polygon class="cls-4" points="114.17 499.23 114.04 504.87 124.66 510.77 130.17 505.25 124.93 499.48 114.17 499.23"/><path class="cls-6" d="M74.27,278.49c.78-3.14,1.31-5.36,1.51-6.16,3.48-14.48,2.35-31.41,3.22-46.41.67-11.71.11-23.49.9-35.18a18.44,18.44,0,0,1,7.84-13.59c3.13-.55,5.89-2.29,9.06-2.92,21.42-4.3,32.7,10.54,40.3,26.44,6.06,12.67,10.94,24.05,11.36,38,.69,22.74-1.73,45.46,2.87,67.73a152.27,152.27,0,0,1,2.91,39.33c-8.8-2.74-17-6.33-25.56-9.4-10.14-3.64-22.31-2.83-32.94-3-12.3-.2-24.32.83-36.58-1.2C60.78,332.37,70.42,294.08,74.27,278.49Z" transform="translate(-0.1 -0.01)"/><polygon class="cls-7" points="115.93 174.91 118.58 234.55 89.39 177.23 98.37 174.26 104.77 172.5 115.93 174.91"/><rect class="cls-8" x="110.83" y="212.38" width="179.11" height="135.4" transform="translate(-115.36 417.79) rotate(-77.99)"/><rect class="cls-9" x="117.75" y="218.24" width="165.71" height="121.74" transform="translate(-114.25 417.24) rotate(-77.99)"/><g class="cls-10"><rect x="215.04" y="173.18" width="4.92" height="52.87" transform="translate(-23.11 370.81) rotate(-77.99)"/></g><path class="cls-11" d="M236.36,185.9l-.8-.17.11-.53c1.08-5.06-2.8-10.16-8.65-11.41l-7.71-1.64c-5.86-1.24-11.48,1.84-12.55,6.9l-.11.53-.81-.17c-5.85-1.24-11.47,1.84-12.54,6.9l-2.18,10.22,51.72,11L245,197.31C246.09,192.26,242.21,187.15,236.36,185.9Zm-8.49-1.58-13.63-2.9a2.57,2.57,0,1,1,.56-5.11,3.1,3.1,0,0,1,.51.11l13.63,2.9a2.57,2.57,0,1,1-.56,5.11A3.1,3.1,0,0,1,227.87,184.32Z" transform="translate(-0.1 -0.01)"/><g class="cls-12"><path class="cls-13" d="M181.92,237.79l-17.48-3.72a.93.93,0,0,0-1.1.71l-3.69,17.33a1,1,0,0,0,.72,1.1l17.48,3.72a.92.92,0,0,0,.67-.11h0a.87.87,0,0,0,.37-.56l3.69-17.33A1,1,0,0,0,181.92,237.79Zm-4.6,17.14-15.66-3.34,3.3-15.52,15.67,3.33q-1.63,7.77-3.31,15.53Z" transform="translate(-0.1 -0.01)"/><path class="cls-13" d="M175.11,269.83l-17.49-3.72a1,1,0,0,0-1.1.71q-1.85,8.67-3.68,17.33a.92.92,0,0,0,.71,1.1L171,289a.81.81,0,0,0,.66-.11h0a.85.85,0,0,0,.38-.56q1.85-8.67,3.68-17.33A.94.94,0,0,0,175.11,269.83ZM170.51,287l-15.66-3.33,3.3-15.53,15.66,3.34Z" transform="translate(-0.1 -0.01)"/><path class="cls-13" d="M168.29,301.88l-17.48-3.72a.92.92,0,0,0-1.1.71L146,316.2a.94.94,0,0,0,.72,1.09l17.5,3.71a.83.83,0,0,0,.67-.11h0a.85.85,0,0,0,.37-.57L169,303a.93.93,0,0,0-.69-1.12ZM163.7,319,148,315.68q1.65-7.76,3.31-15.52L167,303.49Z" transform="translate(-0.1 -0.01)"/></g><polygon class="cls-8" points="168.83 241.87 173.13 241.4 174.52 245.86 196.63 236.22 198.77 237.14 172.59 250.53 168.83 241.87"/><polygon class="cls-8" points="160.39 274.42 164.69 273.94 166.07 278.4 188.19 268.77 190.33 269.68 164.15 283.08 160.39 274.42"/><polygon class="cls-8" points="153.57 304.67 157.87 304.19 159.26 308.65 181.38 299.02 183.51 299.93 157.33 313.33 153.57 304.67"/><g class="cls-14"><rect class="cls-13" x="203.51" y="290.67" width="8.86" height="63.06" transform="translate(-150.57 458.54) rotate(-77.99)"/></g><g class="cls-14"><rect class="cls-13" x="210.74" y="256.73" width="8.86" height="63.06" transform="translate(-111.66 438.73) rotate(-77.99)"/></g><g class="cls-14"><rect class="cls-13" x="217.95" y="222.79" width="8.86" height="63.06" transform="translate(-72.74 418.91) rotate(-77.99)"/></g><path class="cls-8" d="M72.58,51.12l24.65-3a4.12,4.12,0,0,1,3.32-2.65l65.07-8a4.14,4.14,0,0,1,3.86,1.76l24.65-3,3.23,26.15-24.38,3a4.18,4.18,0,0,1-3.52,3.29l-65.06,8a4.18,4.18,0,0,1-4.21-2.34l-24.39,3Z" transform="translate(-0.1 -0.01)"/><g class="cls-10"><polygon points="186.01 37.81 189.15 63.26 179.82 64.41 183.32 38.05 186.01 37.81"/></g><path class="cls-8" d="M205.29,94.79l1.44-.18a11.55,11.55,0,0,0,10.1-12.84h0L208.36,13.1a11.56,11.56,0,0,0-12.93-10L194,3.26a11.56,11.56,0,0,0-10.1,12.85h0l8.47,68.66A11.57,11.57,0,0,0,205.29,94.79Z" transform="translate(-0.1 -0.01)"/><path class="cls-8" d="M229.59,91.79l1.44-.18a11.56,11.56,0,0,0,10.11-12.85h0L232.66,10.1A11.56,11.56,0,0,0,219.73.1L218.3.27a11.56,11.56,0,0,0-10.11,12.85h0l8.48,68.66A11.57,11.57,0,0,0,229.59,91.79Z" transform="translate(-0.1 -0.01)"/><path class="cls-8" d="M239.69,57.6l2.42-1.11c1.76-.81,2.78-3.23,2.46-5.84l-1.75-14.11c-.32-2.61-1.9-4.72-3.8-5.07L236.4,31c-2.62-.49-4.69,2.47-4.25,6.06l1.94,15.71C234.54,56.34,237.27,58.71,239.69,57.6Z" transform="translate(-0.1 -0.01)"/><path class="cls-8" d="M79.37,110.32l-1.43.17a11.56,11.56,0,0,1-12.93-10L56.53,31.82A11.57,11.57,0,0,1,66.64,19l1.44-.18A11.57,11.57,0,0,1,81,28.81l8.48,68.65A11.57,11.57,0,0,1,79.37,110.32Z" transform="translate(-0.1 -0.01)"/><path class="cls-8" d="M55.07,113.32l-1.44.17a11.56,11.56,0,0,1-12.93-10L32.23,34.82A11.56,11.56,0,0,1,42.34,22l1.43-.18a11.57,11.57,0,0,1,12.93,10l8.47,68.66A11.56,11.56,0,0,1,55.07,113.32Z" transform="translate(-0.1 -0.01)"/><path class="cls-8" d="M37,82.6l-2.61-.49c-1.91-.35-3.49-2.46-3.81-5.07L28.8,62.93c-.32-2.61.7-5,2.46-5.84L33.68,56c2.42-1.1,5.15,1.26,5.59,4.85l1.94,15.71C41.66,80.13,39.58,83.09,37,82.6Z" transform="translate(-0.1 -0.01)"/><polygon class="cls-3" points="124.82 285.1 137.69 294.96 145.64 291.7 142.59 284.87 137.35 280.85 138.43 276.84 127.57 273.83 87.92 237.24 92.43 211.13 80.55 186.77 68.02 240.25 75.93 255.53 124.82 285.1"/><path class="cls-15" d="M108,121.79s14.2,7.84,15.33,25.24,5.17,28.1,5.17,28.1-5.19,3.92-10,2.23-6.49-1.86-6.44-9.05S108,127.83,108,127.83Z" transform="translate(-0.1 -0.01)"/><path class="cls-3" d="M117.91,140.75c-7.2-16.7-28.28-8.83-31.37,6.7-1.75,8.82,2.59,24.34,13.16,24.73.5,1.51,1.35,4.36,2.76,5.13s5.31-1.13,6.8-1.85a2.43,2.43,0,0,0,1.09-.81c.31-.49.14-1.57-.12-2.75a14.47,14.47,0,0,0,3.39-1.5c4.69-2.79,7.31-8.31,7.68-13.76S120.08,145.77,117.91,140.75Z" transform="translate(-0.1 -0.01)"/><path class="cls-15" d="M109.16,123.16s4.22,9-7.28,14.32S84.64,154,89,163.55s14.9,14.88,10.75,18.56-22.07,4.94-22.07,4.94S59.25,154.18,70,135.77,101.2,112.25,109.16,123.16Z" transform="translate(-0.1 -0.01)"/></g></g></svg>