<?xml version="1.0" encoding="utf-8"?>
<!-- Generator: Adobe Illustrator 25.4.1, SVG Export Plug-In . SVG Version: 6.00 Build 0)  -->
<svg version="1.1" id="Layer_1" xmlns="http://www.w3.org/2000/svg" xmlns:xlink="http://www.w3.org/1999/xlink" x="0px" y="0px"
	 viewBox="0 0 76.5 76.5" style="enable-background:new 0 0 76.5 76.5;" xml:space="preserve">
<style type="text/css">
	.st0{fill:#1F9964;}
	.st1{fill:#FF5360;}
</style>
<g id="Layer_2_00000138553342074527154730000011651386923039127735_">
	<g id="Layer_1-2">
		<path class="st0" d="M12.1,76.5H4.6c-2.5,0-4.6-2-4.6-4.5c0-0.1,0-0.2,0-0.3C2.4,33.1,33.1,2.4,71.7,0c2.5-0.1,4.7,1.8,4.8,4.3
			c0,0.1,0,0.2,0,0.3v7.5C40.9,12.1,12.1,40.9,12.1,76.5C12.1,76.5,12.1,76.5,12.1,76.5z"/>
		<path class="st1" d="M18.6,76.5h51.6c3.4,0,6.2-2.8,6.2-6.2V18.6C44.5,18.6,18.6,44.5,18.6,76.5L18.6,76.5z M42,67.1
			c-2.1,2.1-5.5,2.1-7.6,0s-2.1-5.5,0-7.6s5.5-2.1,7.6,0c0,0,0,0,0,0C44.1,61.6,44.1,65,42,67.1z M51.4,52.1c-2.1,2.1-5.5,2.1-7.6,0
			s-2.1-5.5,0-7.6c2.1-2.1,5.5-2.1,7.6,0c0,0,0,0,0,0C53.5,46.6,53.5,50,51.4,52.1L51.4,52.1z M66.5,42.1c-2.1,2.1-5.5,2.1-7.6,0
			s-2.1-5.5,0-7.6s5.5-2.1,7.6,0c0,0,0,0,0,0C68.5,36.6,68.5,39.9,66.5,42.1L66.5,42.1z"/>
	</g>
</g>
</svg>
